<svg width="67" height="69" viewBox="0 0 67 69" fill="none" xmlns="http://www.w3.org/2000/svg">
<path d="M36.7846 29.7119C39.6528 31.3679 43.7707 29.6115 45.9807 25.7837C48.1907 21.9558 47.6528 17.5115 44.7846 15.8555C41.9163 14.1995 37.7984 15.9558 35.5884 19.7837C33.3784 23.6115 33.9163 28.0559 36.7846 29.7119Z" fill="url(#paint0_linear_13_7216)"/>
<path d="M48.8582 40.4248C54.9587 28.2984 56.519 19.4119 56.3405 13.249C56.2319 9.68524 55.5435 7.06154 54.8454 5.28671C54.5752 4.58934 54.2496 3.91478 53.8715 3.26951C53.762 3.08266 53.6457 2.89993 53.5227 2.72171C53.3379 2.42562 53.0848 2.17814 52.7847 2C52.4584 1.81764 52.091 1.72156 51.7172 1.72088C51.5001 1.71093 51.2826 1.70864 51.0653 1.71401C50.3106 1.7311 49.5584 1.80637 48.8153 1.93916C46.9176 2.26611 44.2856 3.03284 41.1373 4.7578C35.7047 7.72735 28.8084 13.4961 21.48 24.6133L12.6422 27.9447L12.6184 27.9541C10.5029 28.7803 8.73159 30.3021 7.59605 32.269L1.00005 43.6936C0.79017 44.0571 0.699988 44.4775 0.742279 44.8951C0.784571 45.3127 0.957198 45.7065 1.2357 46.0205C1.5142 46.3346 1.88446 46.5531 2.29403 46.645C2.7036 46.737 3.13172 46.6977 3.51774 46.5328L10.4149 43.5867C11.4339 43.1496 12.6698 43.041 14.1599 43.1161C15.1172 43.17 15.978 43.279 16.8869 43.3927L17.7408 43.4977C19.3097 46.3804 21.8402 48.7974 24.7847 50.4974C27.7291 52.1974 31.0876 53.1804 34.3685 53.0977C34.5406 53.3357 34.7138 53.5557 34.8815 53.7773C35.4393 54.515 35.9641 55.206 36.4895 56.0081C37.2995 57.261 37.8234 58.3856 37.9545 59.4867L38.8516 66.9328C38.9018 67.3496 39.0818 67.74 39.3663 68.0487C39.6507 68.3574 40.025 68.5688 40.4363 68.653C40.8475 68.7371 41.2748 68.6898 41.6576 68.5176C42.0404 68.3454 42.3594 68.0571 42.5693 67.6936L49.1653 56.269C50.3009 54.3021 50.7331 52.0073 50.3909 49.7621L48.8582 40.4248ZM45.7511 46.1826L45.6411 46.3731C43.9091 49.373 41.4873 51.2957 38.763 52.2863C39.1407 52.8 39.5145 53.3206 39.8372 53.8256C40.7942 55.288 41.6885 57.0191 41.9277 59.0047L42.1052 60.4974L45.7012 54.269C46.3806 53.0923 46.6406 51.7197 46.4384 50.3761L45.7511 46.1826ZM16.2463 39.2863C15.7421 36.4317 16.1963 33.373 17.9283 30.3731L18.0363 30.186L14.0649 31.6806C12.7989 32.1779 11.7394 33.0905 11.0602 34.269L7.46415 40.4974L8.84358 39.9082C10.6828 39.1226 12.6311 39.028 14.3761 39.1256C14.9728 39.1561 15.6126 39.216 16.2463 39.2863ZM50.6698 5.73498C50.8081 5.99955 50.9668 6.34061 51.1267 6.75163C51.6585 8.10252 52.2507 10.2688 52.3426 13.3657C52.5154 19.5623 50.703 29.6056 42.177 44.3731C40.461 47.3453 37.9214 48.752 35.1243 49.0446C32.4677 49.326 29.4901 48.5953 26.7847 47.0333C24.0792 45.4713 21.9576 43.258 20.873 40.8166C19.7265 38.2425 19.6764 35.3453 21.3924 32.3731C29.7564 17.8862 37.5435 11.2785 43.0577 8.26367C45.8145 6.76073 48.0276 6.13551 49.4943 5.88306C49.9581 5.79979 50.3512 5.75887 50.6698 5.73498Z" fill="url(#paint1_linear_13_7216)"/>
<path d="M25.1858 57.7051C23.3371 57.0672 21.513 56.2266 19.7844 55.2286C18.0524 54.2286 16.4158 53.0712 14.939 51.7891L15.7988 58.9319C15.8359 59.2402 15.9443 59.5355 16.1154 59.7947C16.2865 60.0538 16.5155 60.2695 16.7844 60.4247C17.0533 60.58 17.3547 60.6705 17.6646 60.6891C17.9745 60.7077 18.2845 60.6539 18.5701 60.5319L25.1858 57.7051Z" fill="black"/>
<defs>
<linearGradient id="paint0_linear_13_7216" x1="44.7846" y1="15.8555" x2="36.7846" y2="29.7119" gradientUnits="userSpaceOnUse">
<stop stop-color="#4D4D4D"/>
<stop offset="1"/>
</linearGradient>
<linearGradient id="paint1_linear_13_7216" x1="52.7847" y1="2" x2="20.7846" y2="57.4256" gradientUnits="userSpaceOnUse">
<stop stop-color="#4D4D4D"/>
<stop offset="1"/>
</linearGradient>
</defs>
</svg>
